# Blender 5.1.1
# www.blender.org
mtllib floor.mtl
o Plane
v -10.000000 0.000000 -10.000000
v 10.000000 0.000000 -10.000000
v -10.000000 0.000000 10.000000
v 10.000000 0.000000 10.000000
v -10.000000 0.000000 0.000000
v 10.000000 0.000000 0.000000
v 0.000000 0.000000 -10.000000
v 0.000000 0.000000 10.000000
v 0.000000 1.599679 0.000000
v -10.000000 0.000000 -5.000000
v 10.000000 0.000000 -5.000000
v 0.000000 0.000000 -5.000000
v 10.000000 0.000000 5.000000
v -10.000000 0.000000 5.000000
v 0.000000 1.599679 5.000000
v -4.909569 0.000000 10.000000
v -4.909569 1.599679 0.000000
v -4.909569 0.000000 -10.000000
v -4.909569 1.599679 -5.000000
v -4.909569 1.599679 5.000000
v 5.000000 0.000000 -10.000000
v 5.000000 0.000000 10.000000
v 5.000000 1.599679 0.000000
v 5.000000 0.000000 -5.000000
v 5.000000 1.599679 5.000000
v 2.500000 0.000000 10.000000
v 2.500000 1.599679 0.000000
v 2.500000 0.000000 -5.000000
v 2.500000 1.599679 5.000000
v 2.500000 0.000000 -10.000000
v 10.000000 0.000000 -2.500000
v 0.000000 1.599679 -2.500000
v -10.000000 0.000000 -2.500000
v -4.909569 1.599679 -2.500000
v 5.000000 1.599679 -2.500000
v 2.500000 1.599679 -2.500000
v -10.000000 0.000000 2.500000
v 10.000000 0.000000 2.500000
v 0.000000 1.599679 2.500000
v -4.909569 1.599679 2.500000
v 5.000000 1.599679 2.500000
v 2.500000 1.599679 2.500000
v 10.000000 0.000000 7.500000
v 0.000000 0.000000 7.500000
v -10.000000 0.000000 7.500000
v -4.909569 0.000000 7.500000
v 5.000000 0.000000 7.500000
v 2.500000 0.000000 7.500000
v -10.000000 0.000000 -7.500000
v 10.000000 0.000000 -7.500000
v 0.000000 0.000000 -7.500000
v -4.909569 0.000000 -7.500000
v 5.000000 0.000000 -7.500000
v 2.500000 0.000000 -7.500000
v 7.500000 0.000000 -10.000000
v 7.500000 0.000000 10.000000
v 7.500000 1.599679 0.000000
v 7.500000 0.000000 -5.000000
v 7.500000 0.000000 5.000000
v 7.500000 1.599679 -2.500000
v 7.500000 0.000000 2.500000
v 7.500000 0.000000 7.500000
v 7.500000 0.000000 -7.500000
v -2.416768 0.000000 -10.000000
v -2.416768 0.000000 10.000000
v -2.416768 1.599679 0.000000
v -2.416768 1.599679 -5.000000
v -2.416768 1.599679 5.000000
v -2.416768 1.599679 -2.500000
v -2.416768 1.599679 2.500000
v -2.416768 0.000000 7.500000
v -2.416768 0.000000 -7.500000
v -7.454785 0.000000 10.000000
v -7.454785 0.000000 0.000000
v -7.454785 0.000000 -5.000000
v -7.454785 0.000000 5.000000
v -7.454784 0.000000 -10.000000
v -7.454785 0.000000 -2.500000
v -7.454785 0.000000 2.500000
v -7.454785 0.000000 7.500000
v -7.454785 0.000000 -7.500000
vn -0.0000 1.0000 -0.0000
vn 0.5390 0.8423 -0.0000
vn 0.4870 0.7357 -0.4708
vn -0.5321 0.8467 -0.0000
vn -0.0000 0.8423 -0.5390
vn 0.4745 0.7415 -0.4745
vn 0.4745 0.7415 0.4745
vn -0.0000 0.8423 0.5390
vn -0.4679 0.7444 -0.4763
vn -0.4679 0.7444 0.4763
vt 1.000000 0.000000
vt 0.000000 1.000000
vt 0.000000 0.000000
vt 1.000000 1.000000
s 0
usemtl floor
f 43/1/1 62/3/1 56/2/1
f 31/1/2 60/3/2 57/2/2
f 32/1/1 69/3/1 66/2/1
f 44/1/1 71/3/1 65/2/1
f 72/3/3 67/2/3 12/4/3
f 50/1/1 63/3/1 58/2/1
f 39/1/1 70/3/1 68/2/1
f 38/1/1 61/3/1 59/2/1
f 40/1/4 79/3/4 76/2/4
f 52/1/1 81/3/1 75/2/1
f 46/1/1 80/3/1 73/2/1
f 34/1/4 78/3/4 74/2/4
f 41/1/1 42/3/1 29/2/1
f 53/1/1 54/3/1 28/2/1
f 35/1/1 36/3/1 27/2/1
f 47/1/1 48/3/1 26/2/1
f 48/1/1 44/3/1 8/2/1
f 36/1/1 32/3/1 9/2/1
f 54/1/1 51/3/1 12/2/1
f 42/1/1 39/3/1 15/2/1
f 28/1/5 12/3/5 32/2/5
f 24/1/5 28/3/5 36/2/5
f 19/1/4 75/3/4 78/2/4
f 67/3/1 69/2/1 32/4/1
f 58/3/6 60/2/6 31/4/6
f 27/1/1 9/3/1 39/2/1
f 23/1/1 27/3/1 42/2/1
f 17/1/4 74/3/4 79/2/4
f 6/1/7 57/3/7 61/2/7
f 9/1/1 66/3/1 70/2/1
f 29/1/8 15/3/8 44/2/8
f 25/1/8 29/3/8 48/2/8
f 76/3/1 80/2/1 46/4/1
f 15/1/8 68/3/8 71/2/8
f 13/1/1 59/3/1 62/2/1
f 30/1/1 7/3/1 51/2/1
f 21/1/1 30/3/1 54/2/1
f 77/3/1 81/2/1 52/4/1
f 2/1/1 55/3/1 63/2/1
f 7/1/1 64/3/1 72/2/1
f 55/1/1 21/3/1 53/2/1
f 59/1/7 25/3/7 47/2/7
f 57/1/1 23/3/1 41/2/1
f 58/1/5 24/3/5 35/2/5
f 61/1/2 41/3/2 25/2/2
f 63/1/1 53/3/1 24/2/1
f 60/1/1 35/3/1 23/2/1
f 62/1/1 47/3/1 22/2/1
f 64/1/1 18/3/1 52/2/1
f 68/1/8 20/3/8 46/2/8
f 66/1/1 17/3/1 40/2/1
f 67/1/1 19/3/1 34/2/1
f 70/1/1 40/3/1 20/2/1
f 72/1/5 52/3/5 19/2/5
f 71/1/1 46/3/1 16/2/1
f 69/1/1 34/3/1 17/2/1
f 77/1/1 1/3/1 49/2/1
f 76/1/1 14/3/1 45/2/1
f 74/1/1 5/3/1 37/2/1
f 75/1/1 10/3/1 33/2/1
f 78/1/1 33/3/1 5/2/1
f 80/1/1 45/3/1 3/2/1
f 81/1/1 49/3/1 10/2/1
f 79/1/1 37/3/1 14/2/1
f 43/1/1 56/2/1 4/4/1
f 31/1/2 57/2/2 6/4/2
f 32/1/1 66/2/1 9/4/1
f 44/1/1 65/2/1 8/4/1
f 72/3/1 12/4/1 51/1/1
f 50/1/1 58/2/1 11/4/1
f 39/1/1 68/2/1 15/4/1
f 38/1/1 59/2/1 13/4/1
f 40/1/4 76/2/4 20/4/4
f 52/1/9 75/2/9 19/4/9
f 46/1/1 73/2/1 16/4/1
f 34/1/4 74/2/4 17/4/4
f 41/1/1 29/2/1 25/4/1
f 53/1/1 28/2/1 24/4/1
f 35/1/1 27/2/1 23/4/1
f 47/1/1 26/2/1 22/4/1
f 48/1/1 8/2/1 26/4/1
f 36/1/1 9/2/1 27/4/1
f 54/1/1 12/2/1 28/4/1
f 42/1/1 15/2/1 29/4/1
f 28/1/5 32/2/5 36/4/5
f 24/1/5 36/2/5 35/4/5
f 19/1/4 78/2/4 34/4/4
f 67/3/3 32/4/3 12/1/3
f 58/3/1 31/4/1 11/1/1
f 27/1/1 39/2/1 42/4/1
f 23/1/1 42/2/1 41/4/1
f 17/1/4 79/2/4 40/4/4
f 6/1/1 61/2/1 38/4/1
f 9/1/1 70/2/1 39/4/1
f 29/1/8 44/2/8 48/4/8
f 25/1/8 48/2/8 47/4/8
f 76/3/10 46/4/10 20/1/10
f 15/1/8 71/2/8 44/4/8
f 13/1/1 62/2/1 43/4/1
f 30/1/1 51/2/1 54/4/1
f 21/1/1 54/2/1 53/4/1
f 77/3/1 52/4/1 18/1/1
f 2/1/1 63/2/1 50/4/1
f 7/1/1 72/2/1 51/4/1
f 55/1/1 53/2/1 63/4/1
f 59/1/1 47/2/1 62/4/1
f 57/1/7 41/2/7 61/4/7
f 58/1/5 35/2/5 60/4/5
f 61/1/2 25/2/2 59/4/2
f 63/1/1 24/2/1 58/4/1
f 60/1/1 23/2/1 57/4/1
f 62/1/1 22/2/1 56/4/1
f 64/1/1 52/2/1 72/4/1
f 68/1/8 46/2/8 71/4/8
f 66/1/1 40/2/1 70/4/1
f 67/1/1 34/2/1 69/4/1
f 70/1/1 20/2/1 68/4/1
f 72/1/5 19/2/5 67/4/5
f 71/1/1 16/2/1 65/4/1
f 69/1/1 17/2/1 66/4/1
f 77/1/1 49/2/1 81/4/1
f 76/1/1 45/2/1 80/4/1
f 74/1/1 37/2/1 79/4/1
f 75/1/1 33/2/1 78/4/1
f 78/1/1 5/2/1 74/4/1
f 80/1/1 3/2/1 73/4/1
f 81/1/1 10/2/1 75/4/1
f 79/1/1 14/2/1 76/4/1
